<?xml version="1.0" standalone="no"?>
<!DOCTYPE svg PUBLIC "-//W3C//DTD SVG 20010904//EN"
 "http://www.w3.org/TR/2001/REC-SVG-20010904/DTD/svg10.dtd">
<svg version="1.0" xmlns="http://www.w3.org/2000/svg"
 width="512.000000pt" height="512.000000pt" viewBox="0 0 512.000000 512.000000"
 preserveAspectRatio="xMidYMid meet">
<metadata>
Created by potrace 1.11, written by Peter Selinger 2001-2013
</metadata>
<g transform="translate(0.000000,512.000000) scale(0.100000,-0.100000)"
fill="#000000" stroke="none">
<path d="M1333 4060 c-36 -21 -60 -82 -49 -123 8 -34 96 -121 146 -147 23 -12
69 -23 103 -26 56 -6 77 -1 232 50 271 90 284 95 300 127 23 43 18 77 -14 110
l-29 29 -329 0 c-307 0 -330 -1 -360 -20z"/>
<path d="M3065 3894 c-14 -15 -25 -37 -25 -49 0 -12 36 -105 80 -206 44 -101
80 -187 80 -192 0 -4 -300 -6 -666 -5 l-667 3 -38 121 -39 122 -67 -25 c-38
-13 -71 -28 -76 -32 -4 -4 8 -52 27 -108 19 -56 30 -105 26 -109 -4 -5 -29
-49 -55 -99 -134 -256 -189 -355 -195 -355 -4 0 -33 9 -66 20 -123 43 -195 54
-344 54 -144 1 -185 -5 -315 -44 -199 -59 -404 -207 -527 -381 -76 -106 -155
-278 -172 -375 -3 -16 -10 -51 -15 -79 -13 -72 -11 -247 5 -338 64 -359 324
-669 664 -791 123 -45 198 -58 330 -62 300 -6 563 99 767 308 113 115 180 220
234 364 18 49 34 91 35 92 4 7 44 -9 42 -16 -5 -19 26 -82 56 -113 34 -35 59
-51 106 -68 22 -8 33 -29 73 -147 26 -77 56 -147 66 -158 17 -16 39 -19 175
-22 l156 -3 0 79 0 80 -32 1 c-18 0 -68 2 -110 3 -42 1 -79 4 -81 6 -2 3 -16
43 -31 90 l-27 85 49 51 c74 76 90 168 48 268 l-16 37 58 79 c92 127 445 616
617 855 87 121 161 224 165 228 4 4 22 -27 41 -69 18 -43 29 -79 23 -81 -34
-11 -151 -100 -221 -166 -503 -483 -393 -1319 219 -1655 75 -41 218 -95 279
-106 101 -18 134 -21 244 -20 560 5 1016 472 1013 1039 0 66 -7 149 -14 185
-82 391 -355 695 -725 805 -109 33 -128 36 -269 40 -126 4 -236 -10 -328 -40
-41 -14 -43 -13 -51 8 -11 28 -149 346 -161 372 -5 11 -46 102 -89 203 l-80
183 264 -3 265 -3 32 -33 c28 -28 33 -39 33 -82 0 -43 -5 -54 -33 -82 l-32
-33 -125 -3 -125 -4 0 -79 0 -79 118 0 c145 0 202 15 265 70 84 74 115 184 82
295 -13 45 -28 69 -68 110 -83 83 -91 84 -488 85 l-340 0 -24 -26z m220 -634
c4 -14 -26 -64 -119 -192 -160 -223 -172 -239 -237 -328 -30 -41 -165 -227
-298 -412 -231 -322 -244 -338 -270 -331 -14 3 -29 11 -33 17 -4 6 -33 90 -63
186 -31 96 -60 186 -65 200 -5 14 -36 113 -70 220 -34 107 -65 206 -70 220 -5
14 -36 113 -70 220 -34 107 -63 201 -65 208 -4 9 136 12 675 12 664 0 679 0
685 -20z m-1430 -305 c42 -132 80 -251 85 -265 8 -24 90 -281 184 -579 25 -80
46 -150 46 -155 -1 -22 -61 -77 -78 -72 -15 5 -17 20 -16 110 4 282 -104 543
-306 744 -36 35 -89 80 -117 100 -52 34 -62 49 -44 67 5 6 30 53 57 105 69
138 108 205 110 194 2 -5 37 -117 79 -249z m-606 -185 c41 -11 78 -23 83 -26
7 -5 -21 -63 -142 -289 -21 -38 -61 -115 -90 -170 -29 -55 -73 -138 -97 -183
-37 -70 -44 -90 -38 -118 9 -48 32 -61 140 -79 17 -2 152 -27 300 -55 149 -28
300 -57 337 -63 l67 -12 -28 -71 c-98 -251 -326 -437 -605 -492 -61 -13 -246
-9 -306 6 -252 62 -444 214 -550 436 -95 199 -104 421 -27 632 33 89 75 158
162 261 28 34 147 125 205 156 129 70 247 97 405 92 74 -2 135 -10 184 -25z
m2803 18 c328 -57 583 -305 653 -636 20 -98 13 -281 -15 -367 -48 -151 -110
-254 -211 -354 -84 -83 -152 -127 -284 -182 -91 -39 -296 -58 -405 -38 -203
37 -371 137 -501 299 -158 198 -210 491 -130 730 58 173 173 327 312 420 l57
38 27 -62 c45 -101 59 -132 162 -371 55 -126 106 -245 113 -262 7 -18 14 -33
17 -33 2 0 29 11 59 25 30 14 59 25 64 25 24 0 14 31 -59 202 -44 100 -113
262 -155 358 -42 96 -72 178 -67 183 28 28 256 44 363 25z m-2496 -181 c140
-118 220 -252 268 -447 4 -14 9 -69 13 -122 6 -98 5 -102 -27 -100 -3 0 -70
12 -150 27 -80 15 -156 29 -170 32 -14 2 -81 15 -150 29 -69 13 -135 24 -147
24 -13 0 -23 5 -23 12 0 10 72 152 175 343 18 33 54 101 80 150 59 112 55 105
63 105 4 0 35 -24 68 -53z"/>
</g>
</svg>
